<?xml version="1.0" standalone="no"?>
<!DOCTYPE svg PUBLIC "-//W3C//DTD SVG 20010904//EN"
 "http://www.w3.org/TR/2001/REC-SVG-20010904/DTD/svg10.dtd">
<svg version="1.0" xmlns="http://www.w3.org/2000/svg"
 width="1452.000000pt" height="372.000000pt" viewBox="0 0 1452.000000 372.000000"
 preserveAspectRatio="xMidYMid meet">
<metadata>
Created by potrace 1.10, written by Peter Selinger 2001-2011
</metadata>
<g transform="translate(0.000000,372.000000) scale(0.100000,-0.100000)"
fill="#000000" stroke="none">
<path d="M11005 2879 c-4 -5 -17 -9 -31 -9 -35 0 -151 -65 -203 -114 -47 -44
-91 -107 -91 -130 0 -7 -7 -19 -15 -26 -20 -17 -21 -113 -1 -129 8 -7 36 -11
63 -9 46 3 48 5 53 35 7 46 116 163 188 201 47 26 62 40 85 86 16 30 27 60 25
67 -5 16 -66 40 -73 28z"/>
<path d="M690 2355 c-14 -8 -33 -14 -43 -15 -57 -1 -207 -103 -207 -141 0 -9
-7 -19 -15 -23 -8 -3 -15 -15 -15 -26 0 -12 -7 -28 -15 -36 -21 -22 -21 -176
0 -198 8 -8 15 -23 15 -33 0 -23 99 -123 122 -123 9 0 20 -4 23 -10 3 -5 30
-10 60 -10 47 0 57 4 89 35 32 31 36 40 36 86 0 75 -24 93 -122 90 -90 -3
-109 10 -90 63 7 18 12 39 12 47 0 29 60 88 96 95 19 3 37 10 40 15 7 12 74
11 74 -1 0 -5 11 -10 24 -10 13 0 31 -3 40 -6 19 -7 22 -54 5 -71 -7 -7 -14
-56 -17 -110 -3 -55 -10 -101 -16 -105 -17 -11 -15 -503 2 -519 7 -8 12 -40
12 -80 0 -47 4 -70 15 -79 10 -8 15 -31 15 -70 0 -39 5 -62 15 -70 8 -7 15
-27 15 -45 0 -18 7 -38 15 -45 8 -7 15 -24 15 -39 0 -39 15 -49 65 -43 31 3
52 0 69 -12 35 -23 370 -24 403 -1 13 9 41 14 77 13 32 -1 62 4 68 10 7 7 22
12 34 12 36 0 216 96 253 134 19 20 40 36 46 36 13 0 73 62 101 104 10 16 31
47 46 70 15 22 28 50 28 62 0 12 11 42 25 68 24 45 25 54 25 227 0 152 -2 181
-15 185 -11 5 -14 15 -9 38 4 23 1 36 -10 45 -9 8 -16 26 -16 40 0 16 -10 37
-25 51 -14 13 -25 29 -25 36 0 7 -6 19 -14 26 -7 8 -16 23 -20 35 -6 20 -82
94 -145 141 -45 34 -163 92 -187 92 -12 0 -28 7 -35 16 -10 12 -24 15 -55 10
-30 -4 -45 -1 -54 9 -10 12 -54 15 -252 15 -132 0 -247 -4 -256 -9 -17 -9 -51
-2 -152 28 -49 15 -140 13 -170 -4z m894 -214 c10 -11 23 -17 30 -15 7 3 19
-2 26 -11 7 -8 25 -15 41 -15 15 0 36 -8 46 -18 10 -11 44 -38 76 -61 31 -23
57 -48 57 -55 0 -7 11 -25 24 -39 25 -27 56 -83 56 -100 0 -6 8 -19 17 -29 15
-17 17 -44 17 -194 1 -115 -3 -177 -10 -182 -6 -4 -14 -20 -18 -37 -13 -58
-70 -154 -120 -203 -56 -54 -172 -122 -210 -122 -14 0 -26 -5 -28 -11 -4 -13
-416 -13 -432 0 -6 4 -26 11 -45 15 -51 9 -71 32 -71 80 -1 23 -7 52 -15 66
-8 14 -14 42 -15 62 0 20 -4 39 -9 42 -15 10 -22 303 -11 466 20 291 20 294
38 308 8 6 26 12 38 12 12 0 27 7 34 15 7 8 27 15 45 15 18 0 38 7 45 15 10
12 45 15 195 15 167 0 183 -2 199 -19z"/>
<path d="M8365 2360 c-3 -5 -14 -10 -24 -10 -42 0 -42 -8 -41 -539 0 -358 -3
-518 -11 -532 -12 -24 -25 -304 -15 -343 15 -60 146 -91 194 -46 40 37 44 83
51 570 4 280 10 434 17 450 6 14 17 43 24 65 15 49 47 95 64 95 7 0 27 7 45
16 30 15 34 15 50 0 10 -9 23 -16 30 -16 7 0 32 -11 56 -25 55 -33 80 -85 88
-182 3 -40 10 -80 15 -90 26 -50 20 -554 -9 -748 -14 -91 -5 -122 42 -157 33
-25 108 -27 143 -5 24 16 25 21 30 159 13 389 28 656 37 683 5 17 12 59 15 95
3 36 12 79 20 97 8 17 14 35 14 40 0 6 14 38 31 72 36 71 87 111 144 111 44 0
67 -13 128 -70 56 -53 87 -108 87 -154 0 -19 7 -47 15 -62 22 -42 22 -429 0
-481 -10 -23 -15 -69 -15 -137 0 -67 -5 -119 -16 -148 -8 -25 -14 -67 -12 -93
3 -46 4 -48 57 -76 45 -24 66 -29 126 -29 52 0 76 4 85 15 7 8 27 15 45 15 18
0 38 7 45 15 7 8 21 15 30 15 10 0 28 12 39 27 49 61 -14 206 -76 174 -51 -26
-72 -33 -89 -29 -18 3 -19 20 -22 368 -1 223 -6 368 -12 374 -6 6 -10 32 -10
59 0 26 -5 58 -12 70 -6 12 -15 38 -19 57 -12 57 -33 104 -56 130 -13 13 -23
31 -23 40 0 24 -84 105 -133 129 -36 17 -62 21 -148 21 -71 -1 -112 -5 -129
-15 -14 -8 -37 -14 -51 -15 -15 0 -32 -7 -39 -15 -7 -8 -20 -15 -30 -15 -10 0
-23 -7 -30 -15 -18 -21 -26 -19 -86 20 -30 20 -80 45 -111 55 -62 21 -178 27
-188 10 -3 -5 -16 -10 -27 -10 -12 0 -51 -14 -86 -32 l-65 -31 -20 24 c-10 13
-31 32 -46 41 -28 19 -106 24 -116 8z"/>
<path d="M7165 2343 c-11 -3 -24 -9 -29 -14 -6 -5 -20 -9 -32 -9 -12 0 -27 -6
-33 -14 -6 -8 -33 -23 -59 -34 -26 -12 -56 -30 -67 -42 -10 -11 -34 -30 -52
-41 -18 -11 -33 -26 -33 -33 0 -7 -10 -21 -21 -32 -12 -10 -28 -32 -36 -49 -8
-16 -23 -46 -33 -65 -29 -53 -25 -93 11 -129 25 -25 39 -31 74 -31 27 0 47 6
56 16 8 9 30 27 49 40 19 13 76 62 125 108 66 63 97 86 117 86 15 0 30 5 33
10 3 6 50 10 105 10 55 0 102 -4 105 -10 3 -5 19 -10 34 -10 16 0 34 -7 41
-15 7 -8 20 -15 30 -15 25 0 90 -75 90 -104 0 -14 4 -27 9 -30 5 -4 12 -24 16
-46 4 -22 11 -42 16 -46 13 -8 11 -210 -3 -255 -6 -22 -17 -39 -25 -39 -7 0
-13 4 -13 10 0 14 -99 110 -113 110 -7 0 -18 5 -24 11 -7 7 -36 20 -65 30 -69
24 -274 27 -304 4 -10 -8 -29 -15 -42 -15 -55 0 -262 -148 -262 -186 0 -6 -7
-17 -15 -24 -8 -7 -15 -20 -15 -30 0 -10 -6 -23 -14 -29 -35 -29 -35 -253 0
-282 8 -6 14 -19 14 -29 0 -10 7 -23 15 -30 8 -7 15 -19 15 -26 0 -25 136
-151 186 -173 44 -20 63 -22 184 -19 83 2 149 9 170 17 85 33 167 76 198 103
18 15 39 28 46 28 7 0 23 11 36 25 28 30 63 30 69 0 2 -11 16 -35 32 -53 16
-18 29 -37 29 -41 0 -23 73 -51 132 -51 52 0 65 4 98 30 21 16 42 30 47 30 13
0 96 90 126 137 33 53 34 64 1 102 -23 28 -32 31 -80 31 -52 0 -99 -20 -175
-72 -23 -16 -49 -3 -49 24 -1 13 -7 34 -15 48 -20 36 -20 308 0 387 10 36 15
104 15 185 0 92 -4 139 -15 165 -8 19 -15 46 -15 58 0 13 -11 36 -24 52 -13
15 -26 37 -30 49 -9 30 -74 88 -131 119 -121 64 -145 75 -163 75 -9 0 -35 7
-57 15 -39 14 -233 19 -280 8z m275 -818 c23 -5 54 -25 88 -58 48 -48 52 -55
51 -97 0 -31 -9 -58 -27 -86 -15 -22 -38 -57 -51 -78 -13 -20 -40 -45 -60 -55
-20 -11 -47 -31 -61 -46 -41 -44 -103 -65 -192 -65 l-80 0 -59 59 c-32 33 -61
72 -64 88 -4 15 -11 38 -16 51 -12 30 -12 89 1 97 6 3 10 15 10 25 0 25 97
130 120 130 10 0 23 7 30 15 7 8 27 15 46 15 18 0 36 5 39 11 7 11 161 7 225
-6z"/>
<path d="M2846 2305 c-11 -8 -39 -15 -62 -15 -25 0 -47 -6 -54 -15 -7 -8 -18
-15 -25 -15 -18 0 -135 -64 -159 -87 -12 -11 -31 -23 -42 -27 -28 -9 -144
-130 -144 -150 0 -8 -8 -20 -17 -25 -10 -5 -29 -31 -41 -58 -13 -26 -28 -55
-33 -63 -5 -8 -12 -22 -15 -30 -3 -8 -10 -24 -17 -35 -18 -33 -29 -112 -34
-244 -4 -104 -2 -126 12 -141 11 -12 14 -26 10 -40 -9 -29 64 -179 103 -212
16 -14 33 -34 36 -46 4 -11 16 -24 26 -27 11 -3 38 -24 61 -46 22 -21 48 -39
57 -39 9 0 44 -14 77 -30 43 -22 74 -30 111 -30 34 0 56 -5 64 -15 18 -21 257
-22 286 0 10 8 40 15 66 15 25 0 48 4 50 8 2 5 42 28 89 51 71 34 100 56 165
124 72 75 91 100 133 176 8 15 17 28 21 31 4 3 10 17 14 33 3 15 11 27 16 27
6 0 10 15 10 34 0 18 7 39 15 46 8 7 15 24 15 37 0 14 6 37 14 51 29 58 57
151 63 214 3 26 11 52 19 59 8 6 14 23 14 38 1 14 7 37 14 50 8 14 12 31 9 38
-6 15 35 82 75 126 31 33 89 38 112 9 49 -61 50 -68 50 -366 0 -192 -4 -286
-11 -293 -7 -7 -13 -83 -16 -197 -4 -103 -10 -189 -14 -192 -15 -9 -9 -76 10
-118 14 -33 22 -39 51 -43 19 -2 39 -8 44 -13 10 -10 76 14 88 33 4 7 8 247 8
534 l0 522 28 15 c15 8 50 35 77 60 28 25 56 46 63 46 7 0 20 7 28 15 9 8 24
15 33 15 10 0 24 7 31 15 9 11 34 15 101 15 72 0 96 -4 131 -22 55 -29 57 -31
98 -108 l35 -65 0 -482 c0 -372 3 -485 13 -494 6 -7 12 -21 12 -31 0 -34 44
-50 132 -49 45 1 98 7 118 13 32 12 80 50 80 66 0 11 -52 52 -66 52 -18 0 -83
71 -84 90 0 8 -7 23 -15 34 -12 15 -13 88 -8 452 6 518 7 511 -91 612 -33 34
-69 62 -79 62 -9 0 -20 7 -23 15 -4 8 -16 15 -29 15 -12 0 -28 7 -35 15 -10
12 -40 15 -155 15 -115 0 -145 -3 -155 -15 -7 -8 -23 -15 -37 -15 -13 0 -26
-7 -29 -15 -4 -8 -17 -15 -30 -15 -13 0 -24 -4 -24 -9 0 -5 -13 -14 -29 -19
-16 -6 -39 -24 -52 -41 -30 -40 -57 -39 -98 3 -18 19 -44 37 -57 40 -13 4 -24
11 -24 16 0 6 -31 10 -70 10 -58 0 -77 -4 -111 -25 -22 -14 -51 -30 -64 -35
-21 -8 -75 -77 -75 -97 0 -4 -9 -26 -21 -50 -20 -42 -39 -56 -39 -30 0 6 -16
30 -35 51 -19 22 -35 45 -35 51 0 19 -62 71 -115 96 -27 13 -51 27 -53 32 -2
4 -16 7 -31 7 -14 0 -35 6 -46 14 -11 7 -33 16 -50 19 -16 3 -48 10 -70 16
-64 17 -346 14 -369 -4z m457 -197 c86 -60 147 -140 147 -192 0 -13 6 -29 14
-36 8 -6 12 -18 9 -26 -9 -24 -153 -19 -205 8 -24 12 -44 26 -46 30 -2 4 -13
8 -24 8 -29 0 -100 76 -139 148 -28 53 -31 65 -19 72 8 6 64 10 123 10 95 0
112 -3 140 -22z m-419 -44 c9 -3 16 -13 16 -20 0 -15 6 -25 68 -124 43 -67
181 -210 203 -210 9 0 22 -7 29 -15 7 -8 20 -15 29 -15 9 0 23 -6 29 -12 8 -8
48 -13 106 -14 52 -1 99 -5 105 -8 16 -10 13 -89 -4 -112 -8 -10 -15 -31 -15
-45 0 -15 -7 -32 -15 -39 -8 -7 -15 -20 -15 -30 0 -10 -7 -23 -16 -31 -8 -7
-22 -26 -31 -43 -19 -39 -177 -196 -196 -196 -8 0 -20 -7 -27 -15 -7 -8 -18
-15 -25 -15 -8 0 -26 -6 -42 -14 -64 -31 -103 -40 -194 -44 -78 -3 -98 0 -108
12 -8 9 -28 16 -47 16 -18 0 -35 4 -39 9 -3 6 -30 22 -61 36 -66 31 -194 155
-194 188 0 12 -7 31 -15 41 -8 11 -15 37 -15 58 0 21 -6 49 -14 61 -19 30 -19
106 -1 141 8 15 15 50 15 76 0 30 6 52 15 60 8 7 15 20 15 30 0 10 7 23 15 30
8 7 15 20 15 29 0 18 139 161 157 161 6 0 16 7 23 15 7 8 20 15 30 15 10 0 23
7 30 15 9 11 33 15 85 15 41 0 80 -3 89 -6z"/>
<path d="M10620 2305 c-14 -8 -41 -15 -60 -15 -19 0 -44 -7 -54 -15 -11 -8
-27 -15 -36 -15 -9 0 -50 -16 -91 -36 -60 -30 -93 -56 -174 -140 -67 -68 -111
-123 -133 -166 -17 -35 -32 -68 -32 -74 0 -6 -7 -17 -15 -24 -8 -7 -15 -24
-15 -39 0 -15 -6 -36 -14 -46 -8 -11 -16 -45 -19 -75 -3 -30 -9 -75 -15 -100
-7 -30 -7 -60 0 -90 5 -25 13 -69 17 -98 4 -28 12 -57 19 -64 7 -7 12 -22 12
-34 0 -24 43 -106 65 -124 8 -7 15 -18 15 -25 0 -12 43 -52 110 -104 42 -31
158 -91 179 -91 9 0 29 -7 45 -15 15 -8 54 -15 85 -15 31 0 74 -7 96 -14 34
-12 42 -12 59 0 14 10 51 14 118 14 53 0 99 4 103 9 3 5 20 12 38 16 43 9 107
37 107 47 0 4 9 8 20 8 10 0 33 14 50 30 17 17 35 30 41 30 18 0 106 90 119
120 7 17 16 30 21 30 9 0 109 200 109 218 0 5 7 15 15 22 8 7 15 25 15 39 0
15 7 36 15 47 8 10 15 35 15 54 0 19 7 44 15 54 8 11 15 31 15 45 0 14 7 35
15 45 8 11 15 30 15 42 0 12 7 35 15 50 8 16 15 43 15 61 0 17 5 35 10 38 6 3
10 16 10 28 0 33 75 132 111 148 30 12 33 11 60 -19 23 -26 29 -42 29 -80 0
-26 7 -74 15 -105 18 -68 20 -213 4 -254 -6 -15 -13 -117 -15 -227 -3 -112 -9
-207 -15 -218 -6 -11 -12 -75 -14 -141 l-2 -122 32 -32 c18 -18 41 -34 52 -34
10 -1 34 -3 53 -4 26 -2 42 3 62 23 34 31 55 89 39 105 -8 8 -11 151 -11 482
l0 471 38 36 c54 51 160 117 210 130 23 6 45 14 48 19 7 12 121 12 128 0 3 -5
21 -12 39 -15 54 -10 117 -93 117 -156 1 -19 7 -46 15 -60 17 -30 21 -313 5
-355 -15 -40 -23 -349 -11 -435 17 -126 26 -175 35 -188 4 -7 27 -22 51 -33
74 -35 203 -14 261 42 41 39 42 51 8 74 -55 36 -106 90 -126 134 -20 45 -21
55 -14 346 4 168 12 316 18 338 8 27 8 47 0 76 -7 21 -12 65 -12 98 0 37 -6
67 -15 79 -8 10 -15 26 -15 35 0 9 -7 22 -15 29 -8 7 -15 19 -15 28 0 27 -95
109 -164 141 -65 30 -71 31 -204 30 -95 -1 -145 -5 -164 -15 -15 -8 -36 -14
-46 -14 -11 0 -30 -11 -43 -25 -13 -13 -31 -25 -39 -25 -8 0 -36 -21 -62 -47
l-48 -47 -42 41 c-24 22 -58 48 -77 57 -43 20 -156 21 -203 2 -42 -18 -138
-106 -138 -128 0 -8 -7 -21 -15 -28 -8 -7 -15 -21 -15 -31 0 -10 -4 -20 -9
-23 -18 -12 -36 5 -56 51 -28 64 -170 172 -226 173 -15 0 -32 6 -38 14 -6 7
-30 14 -52 14 -22 1 -51 8 -64 16 -34 22 -347 23 -385 1z m458 -224 c47 -24
132 -114 132 -139 0 -11 7 -32 15 -48 22 -44 5 -56 -69 -49 -107 11 -188 50
-262 127 -40 42 -54 64 -54 86 0 16 3 32 7 35 3 4 49 7 100 7 73 0 102 -4 131
-19z m-416 -58 c39 -57 52 -78 71 -118 17 -35 164 -183 219 -220 20 -14 45
-25 55 -25 10 0 32 -8 48 -17 21 -11 55 -17 110 -17 l80 -1 -3 -55 c-2 -30
-10 -65 -18 -77 -8 -12 -14 -29 -14 -36 0 -8 -7 -20 -15 -27 -8 -7 -15 -20
-15 -30 0 -9 -9 -25 -21 -36 -12 -10 -28 -32 -36 -47 -15 -29 -111 -124 -141
-141 -10 -5 -26 -17 -37 -26 -11 -10 -46 -25 -78 -35 -33 -10 -65 -24 -72 -32
-16 -16 -230 -19 -240 -3 -3 6 -14 10 -24 10 -37 0 -168 74 -219 124 -68 66
-122 153 -122 198 0 19 -5 39 -11 45 -19 19 2 242 27 278 8 11 14 32 14 47 0
15 6 31 14 35 7 4 25 26 39 49 54 87 132 144 257 187 78 27 95 23 132 -30z"/>
<path d="M5662 2278 c-8 -8 -53 -14 -115 -16 -56 -2 -106 -8 -111 -13 -6 -5
-27 -9 -47 -9 -57 0 -92 -34 -91 -90 1 -90 74 -124 257 -121 50 1 247 3 440 4
l350 2 17 -35 c15 -30 17 -69 17 -270 0 -191 -2 -239 -14 -254 -8 -11 -15 -39
-15 -63 0 -24 -4 -43 -10 -43 -5 0 -13 -12 -17 -27 -21 -71 -75 -153 -140
-212 -37 -33 -73 -61 -79 -61 -6 0 -17 -7 -24 -15 -7 -8 -28 -15 -47 -15 -18
0 -50 -7 -70 -15 -44 -19 -80 -19 -113 0 -14 8 -40 14 -59 15 -54 0 -208 81
-263 137 -43 44 -108 162 -108 195 0 8 7 23 15 34 8 10 15 30 15 43 0 16 17
41 50 73 l50 48 70 0 c43 0 82 -6 99 -15 40 -20 71 -77 71 -129 0 -47 17 -70
61 -81 17 -4 31 -1 41 8 7 8 24 17 35 21 12 4 25 17 29 29 4 11 13 27 20 35
24 23 17 109 -13 169 -50 98 -135 153 -237 153 -35 0 -67 5 -74 12 -9 9 -15 9
-24 0 -7 -7 -33 -12 -59 -12 -29 0 -51 -6 -59 -15 -7 -8 -20 -15 -29 -15 -9 0
-45 -25 -80 -54 -49 -42 -71 -70 -97 -125 -33 -69 -34 -75 -34 -197 0 -115 2
-130 27 -182 31 -68 33 -70 110 -147 33 -33 78 -68 99 -79 21 -10 46 -22 54
-27 8 -5 22 -12 30 -15 8 -3 27 -12 42 -20 14 -8 40 -14 58 -14 17 0 40 -5 51
-11 26 -14 228 -14 242 0 6 6 33 11 59 11 37 0 72 11 146 46 53 26 106 56 118
68 11 11 33 28 49 36 16 9 36 29 45 45 8 16 20 34 26 40 26 25 91 134 103 175
8 25 21 56 28 68 9 14 12 34 8 49 -4 16 0 34 11 50 29 44 50 405 30 508 -7 36
-5 45 18 72 14 17 26 37 26 44 0 8 7 23 15 33 8 11 15 30 15 42 0 29 -72 94
-104 94 -14 0 -28 5 -31 10 -3 6 -39 10 -79 10 -48 0 -79 5 -92 15 -16 12 -76
14 -359 15 -255 0 -344 -3 -353 -12z"/>
</g>
</svg>
